<?xml version="1.0" encoding="UTF-8"?>
<svg id="b" data-name="Capa 2" xmlns="http://www.w3.org/2000/svg" viewBox="0 0 141.73 40.76">
  <g id="c" data-name="Capa 1">
    <g>
      <rect y=".72" width="6.26" height="28.41" style="fill: #fff;"/>
      <rect x="29.81" y=".72" width="4.55" height="5.54" style="fill: #fff;"/>
      <polygon points="52.28 .72 37.9 .72 37.9 6.26 37.91 6.26 37.91 29.13 44.17 29.13 44.17 6.26 52.28 6.26 52.28 .72" style="fill: #fff;"/>
      <path d="M57.1,12.76h-.08v-3.13h-6.02v19.5h6.02v-8.14c0-3.89.56-6.54,5.14-6.54.88,0,1.73.16,2.57.4v-5.5c-.56-.16-1.32-.2-2.01-.2-2.65,0-4.33,1.24-5.62,3.61Z" style="fill: #fff;"/>
      <path d="M102.65,9.15c-2.93,0-4.9,1.6-5.7,3.13h-.08v-2.65h-5.78v19.5h6.02v-9.71c0-2.53.48-4.97,3.61-4.97s3.13,2.89,3.13,5.13v9.55h6.02v-10.75c0-5.22-1.12-9.23-7.22-9.23Z" style="fill: #fff;"/>
      <rect x="114.21" y="9.63" width="6.02" height="19.5" style="fill: #fff;"/>
      <path d="M134.79,24.31c-3.01,0-4.82-2.01-4.82-4.93s1.81-4.93,4.82-4.93c1.24,0,2.37.64,2.97,1.48l3.97-4.17c-1.89-1.93-4.66-2.61-6.94-2.61-6.02,0-10.83,4.01-10.83,10.23s4.81,10.23,10.83,10.23c2.29,0,5.06-.68,6.94-2.61l-3.97-4.17c-.68.8-1.65,1.48-2.97,1.48Z" style="fill: #fff;"/>
      <path d="M18.37,19.73c.66,0,1.19-.53,1.19-1.19s-.53-1.19-1.19-1.19-1.19.53-1.19,1.19.53,1.19,1.19,1.19Z" style="fill: #fff;"/>
      <path d="M22.66,19.73c.66,0,1.19-.53,1.19-1.19s-.53-1.19-1.19-1.19-1.19.53-1.19,1.19.53,1.19,1.19,1.19Z" style="fill: #fff;"/>
      <path d="M20.12,8.76c-5.57,0-10.14,4.34-10.53,9.82l-.04-.03v.78s0,0,0,0,0,0,0,0v14.06s0,.15,0,.18c.11,1.65,1.18,3.14,2.87,3.99.86.43,1.8.65,2.73.65,1.01,0,1.99-.26,2.79-.75,0,0,.2-.11.24-.15,1.95-1.93,6.17-6.9,8.61-9.81,2.36-1.94,3.88-4.88,3.88-8.17,0-5.83-4.74-10.56-10.56-10.56ZM20.12,13.84c3.03,0,5.49,2.46,5.49,5.49s-2.46,5.49-5.49,5.49-5.49-2.46-5.49-5.49,2.46-5.49,5.49-5.49ZM15.4,33.49c-.19.04-.6,0-.86-.13-.15-.08-.26-.17-.29-.2v-5.07c1.27.86,2.75,1.43,4.33,1.67l-3.18,3.73Z" style="fill: #fff;"/>
      <path d="M78.44,8.97v5.22c2.16.74,3.72,2.78,3.72,5.19,0,3.03-2.46,5.49-5.49,5.49s-5.49-2.46-5.49-5.49c0-2.4,1.56-4.45,3.71-5.19v-5.22c-4.98.85-8.79,5.18-8.79,10.4,0,5.83,4.74,10.57,10.57,10.57s10.56-4.74,10.56-10.57c0-5.22-3.81-9.56-8.79-10.4Z" style="fill: #fff;"/>
      <path d="M34.17,35.25l-2.04,5.36h1.48l.32-.93h1.99l.32.93h1.48l-2.04-5.36h-1.52ZM34.3,38.62l.63-1.78.62,1.78h-1.25Z" style="fill: #fff;"/>
      <path d="M47.11,35.1c-.37,0-.73.07-1.07.21-.34.14-.64.33-.9.58-.26.25-.46.54-.62.89-.15.34-.23.72-.23,1.13s.08.79.23,1.14c.16.35.36.65.62.9.26.25.56.45.89.59.34.14.69.21,1.06.21.18,0,.36-.02.55-.05.18-.04.38-.09.6-.17l.14-.05v-1.65c-.36.38-.76.57-1.2.57-.2,0-.39-.04-.57-.11-.18-.08-.33-.18-.46-.31-.13-.13-.23-.29-.31-.47-.07-.18-.11-.38-.11-.59s.04-.4.11-.58c.07-.18.17-.34.3-.46.13-.13.28-.23.46-.31.18-.08.37-.11.58-.11.47,0,.87.2,1.19.59v-1.66c-.23-.09-.44-.16-.65-.21-.21-.05-.42-.07-.63-.07Z" style="fill: #fff;"/>
      <path d="M57.32,35.25l-2.04,5.36h1.48l.32-.93h1.99l.32.93h1.48l-2.04-5.36h-1.52ZM57.45,38.62l.63-1.78.62,1.78h-1.25Z" style="fill: #fff;"/>
      <path d="M71.81,36.06c-.24-.24-.52-.44-.84-.59-.32-.15-.66-.22-1.03-.22h-2.06v5.36h2.06c.37,0,.71-.07,1.03-.22.32-.15.6-.34.84-.59.24-.25.43-.53.56-.86.13-.32.2-.66.2-1.01s-.07-.69-.21-1.02c-.14-.32-.32-.61-.56-.85ZM71.02,38.53c-.07.18-.17.34-.3.47-.13.13-.29.24-.48.31-.19.08-.4.11-.65.11h-.32v-3h.32c.24,0,.45.04.64.11.19.08.35.18.48.31.13.13.23.29.3.48.07.18.11.38.11.6s-.03.42-.1.6Z" style="fill: #fff;"/>
      <polygon points="79.86 40.61 82.91 40.61 82.91 39.43 81.25 39.43 81.25 38.51 82.81 38.51 82.81 37.33 81.25 37.33 81.25 36.43 82.91 36.43 82.91 35.25 79.86 35.25 79.86 40.61" style="fill: #fff;"/>
      <polygon points="94.49 35.25 93.42 38.11 92.35 35.25 90.97 35.25 90.06 40.61 91.45 40.61 91.91 37.53 93.11 40.61 93.66 40.61 94.93 37.53 95.39 40.61 96.77 40.61 95.86 35.25 94.49 35.25" style="fill: #fff;"/>
      <polygon points="106.04 36.72 105.05 35.25 103.39 35.25 105.34 38.04 105.34 40.61 106.73 40.61 106.73 38.04 108.69 35.25 107.03 35.25 106.04 36.72" style="fill: #fff;"/>
      <path d="M117.22,0c-1.93,0-3.49,1.57-3.49,3.49s1.57,3.49,3.49,3.49,3.49-1.57,3.49-3.49-1.56-3.49-3.49-3.49Z" style="fill: #fff;"/>
    </g>
    <path d="M14.24,28.1c-2.15-1.81-3.78-4.21-4.62-6.96h-.07v3.76c1.17,2.04,2.78,3.81,4.69,5.18v-1.98Z" style="fill: #9a9a9e;"/>
    <path d="M19.96,29.84c-.47,0-.94-.03-1.4-.07l-1.29,1.51c.85.14,1.72.21,2.61.21,1.26,0,2.74-.2,3.93-.48.9-1.05,1.76-2.07,2.48-2.93-1.87.85-4.32,1.75-6.34,1.75" style="fill: #9a9a9e;"/>
  </g>
</svg>